<?xml version="1.0" encoding="UTF-8"?>
<svg version="1.1" xmlns="http://www.w3.org/2000/svg" width="500" height="500">
<path d="M0 0 C2.32698874 -0.00071885 4.65397186 -0.0028686 6.98095918 -0.00549722 C15.14479841 -0.01470152 23.3086215 -0.01883825 31.47246575 -0.01804566 C39.00913167 -0.01744594 46.54572578 -0.02798987 54.08237356 -0.04378933 C60.61552934 -0.0569832 67.14866199 -0.06222467 73.68183094 -0.06159025 C77.55615196 -0.06133875 81.43040895 -0.06399265 85.30471635 -0.0747683 C99.17630561 -0.11050752 113.02922037 -0.12886331 126.86553216 1.00197387 C127.76088772 1.07221928 128.65624328 1.14246469 129.57873082 1.21483874 C137.95809502 2.01533393 145.25913392 4.65815845 152.85454583 8.16725707 C153.62411614 8.48565551 154.39368646 8.80405395 155.18657708 9.13210082 C161.73636521 12.0268137 167.25704458 16.78109626 172.85454583 21.16725707 C173.46685052 21.6338977 174.07915521 22.10053832 174.71001458 22.58131957 C185.34039698 30.96022687 192.80652244 42.78846441 197.85454583 55.16725707 C198.31860833 56.28680785 198.31860833 56.28680785 198.79204583 57.42897582 C199.96823611 60.39772531 200.84084675 62.99076721 201.08892083 66.18678832 C201.57231079 69.34473664 201.57231079 69.34473664 204.26079583 71.00319457 C205.79220208 71.76503051 205.79220208 71.76503051 207.35454583 72.54225707 C225.89674867 82.59235045 237.20867355 100.6650218 244.04204583 120.10866332 C244.80033228 122.96317431 245.02927398 125.23510036 244.85454583 128.16725707 C245.57513177 128.4276477 246.29571771 128.68803832 247.03813958 128.95631957 C264.62241023 136.51682429 278.65348686 155.05953895 285.85454583 172.16725707 C290.84829452 186.5123568 291.0044871 200.17480975 290.9998095 215.16432738 C291.00280544 217.08394983 291.00620896 219.00357167 291.00998712 220.92319274 C291.0187871 226.11552699 291.02116354 231.30784474 291.0218029 236.50018573 C291.02251568 239.75037406 291.0246543 243.00055824 291.02730012 246.25074553 C291.0365403 257.60719608 291.04063667 268.96363492 291.03984857 280.3200891 C291.03924813 290.87758055 291.0497967 301.43502084 291.06559223 311.99249935 C291.07870122 321.0807451 291.08403106 330.1689742 291.08339316 339.25722933 C291.08313916 344.67453524 291.08593596 350.09179566 291.09657121 355.50909209 C291.10630888 360.60795612 291.10629279 365.70673168 291.09905457 370.80559897 C291.09801575 372.66706957 291.10032942 374.52854584 291.10641503 376.39000678 C291.1871476 402.81522925 286.3404949 426.26855228 267.20220208 445.88600707 C253.0813566 459.62354542 233.45307641 470.70788472 213.39939523 471.48066783 C212.32311451 471.52220888 211.24683379 471.56374993 210.1379385 471.6065498 C208.97073056 471.64545084 207.80352263 471.68435189 206.60094476 471.72443175 C204.74509472 471.78771856 204.74509472 471.78771856 202.85175276 471.8522839 C188.6338759 472.29427648 174.41685533 472.29241786 160.19369555 472.25741589 C156.23338528 472.24881713 152.27306946 472.2463091 148.31275201 472.24281859 C138.82036854 472.23310895 129.32801638 472.21345253 119.83565199 472.19255784 C115.34293042 472.18290113 110.85020674 472.17436294 106.35748315 472.1657064 C91.39742653 472.13649009 76.43737844 472.10484344 61.47734475 472.06548572 C57.62212145 472.05536958 53.76689814 472.0452572 49.91167474 472.03517699 C48.95377472 472.03267012 47.9958747 472.03016324 47.0089474 472.0275804 C31.44691363 471.9873179 15.88490363 471.9642103 0.32282791 471.94819836 C-15.71983923 471.93142407 -31.76242197 471.8997021 -47.8050313 471.85331434 C-56.78688219 471.82770217 -65.76864406 471.80845248 -74.75053382 471.80593848 C-82.38487988 471.80374993 -90.01904704 471.78790311 -97.65332338 471.75460599 C-101.54003723 471.73805892 -105.42648934 471.72770468 -109.31323791 471.73491263 C-145.06788303 471.79146041 -145.06788303 471.79146041 -161.14545417 463.16725707 C-162.08775886 462.6748352 -163.03006354 462.18241332 -164.00092292 461.67506957 C-170.32764685 458.19497048 -175.62596909 454.30885192 -180.84857917 449.32741332 C-183.04104935 447.1923269 -183.04104935 447.1923269 -185.19232917 445.60085082 C-198.80311429 435.17498942 -206.24620465 416.09245814 -208.46839857 399.63909513 C-209.52915639 390.98104062 -209.42516268 382.31178117 -209.40424323 373.6025598 C-209.40695977 371.68219917 -209.41052439 369.76183958 -209.41486335 367.84148192 C-209.42391024 362.67008107 -209.42047532 357.49876082 -209.41410518 352.32735872 C-209.40900574 346.89004272 -209.41374744 341.45273316 -209.41687751 336.01541686 C-209.42050542 326.88934136 -209.41574866 317.76329833 -209.40619636 308.63722777 C-209.39531083 298.11654931 -209.39884288 287.59594838 -209.40984917 277.07527179 C-209.41895171 268.0081522 -209.42019294 258.94105582 -209.41497183 249.87393314 C-209.41186883 244.47347443 -209.41139661 239.07305205 -209.41804481 233.67259574 C-209.4238611 228.59417668 -209.4197437 223.51585672 -209.40825629 218.43744826 C-209.40563261 216.58403921 -209.4063351 214.73062168 -209.41078162 212.8772161 C-209.47350866 184.05370286 -203.2176013 162.74161919 -182.89545417 141.54225707 C-169.29214691 128.16725707 -169.29214691 128.16725707 -163.14545417 128.16725707 C-163.12482917 127.01225707 -163.10420417 125.85725707 -163.08295417 124.66725707 C-161.61339149 111.86394388 -153.81684482 100.14282441 -146.14545417 90.16725707 C-145.59373542 89.43120238 -145.04201667 88.6951477 -144.47357917 87.93678832 C-140.99429288 83.62212883 -136.92214117 80.20188021 -132.58295417 76.79225707 C-132.04058112 76.36275756 -131.49820807 75.93325805 -130.93939948 75.4907434 C-128.25330627 73.45255412 -126.09889844 72.15382965 -122.84076667 71.21413207 C-119.93345233 70.44921672 -119.93345233 70.44921672 -119.07904792 67.76881957 C-118.91533698 66.78655395 -118.75162604 65.80428832 -118.58295417 64.79225707 C-113.95595249 42.40612756 -99.94110259 27.33159592 -82.14545417 14.16725707 C-81.26180182 13.50403441 -81.26180182 13.50403441 -80.36029792 12.82741332 C-57.21867624 -3.09198797 -26.61685582 0.00463454 0 0 Z M-67.14545417 42.16725707 C-67.91889167 42.71510863 -68.69232917 43.2629602 -69.48920417 43.82741332 C-74.63393712 47.59164293 -78.89636318 51.6246901 -82.14545417 57.16725707 C-82.14545417 57.82725707 -82.14545417 58.48725707 -82.14545417 59.16725707 C-79.33614686 59.96344268 -76.8455799 60.29244319 -73.92909122 60.29309821 C-72.67112276 60.29700983 -72.67112276 60.29700983 -71.38774079 60.30100048 C-70.47150187 60.29876975 -69.55526296 60.29653903 -68.61125922 60.29424071 C-67.1453542 60.2965807 -67.1453542 60.2965807 -65.64983493 60.29896796 C-62.36637704 60.30296516 -59.08296516 60.29979324 -55.7995069 60.2966516 C-53.44913431 60.2980062 -51.09876193 60.29978646 -48.74838996 60.30196166 C-42.35812804 60.30652877 -35.96788223 60.30474945 -29.57762003 60.30158257 C-23.57566445 60.29931152 -17.57371036 60.3010427 -11.57175482 60.30250977 C1.03883828 60.30536191 13.64942411 60.30208158 26.26001602 60.2967094 C37.08539353 60.29224057 47.91076031 60.29301846 58.73613763 60.29762816 C71.30278868 60.30297682 83.86943337 60.30508834 96.4360854 60.3020159 C103.0899897 60.30043333 109.74388755 60.3002565 116.39779115 60.30355239 C122.65135205 60.30643349 128.90489262 60.30445097 135.15845132 60.29865813 C137.45831352 60.29733188 139.75817742 60.29772238 142.05803895 60.2999208 C145.18782751 60.30263752 148.31755021 60.29924469 151.44733453 60.29424071 C152.82503899 60.2975868 152.82503899 60.2975868 154.23057586 60.30100048 C155.06661375 60.29839273 155.90265164 60.29578498 156.76402402 60.29309821 C157.48674184 60.29293586 158.20945966 60.29277351 158.95407802 60.29260623 C161.07930617 60.23295113 161.07930617 60.23295113 163.85454583 59.16725707 C160.86035019 49.79559388 151.027921 42.84401109 143.04595208 37.70241332 C132.27021894 32.51898232 122.44689264 31.58605326 110.71001458 31.64967895 C109.01344478 31.6442476 107.31687971 31.6371193 105.62032342 31.62843871 C101.04587464 31.61032266 96.47178981 31.61722404 91.89733529 31.62995505 C87.09033819 31.64014387 82.28337044 31.63067315 77.476372 31.62441039 C69.40673553 31.61715102 61.3372459 31.62667665 53.26763177 31.6457727 C43.96305056 31.66753812 34.65882005 31.66048554 25.35424733 31.63846707 C17.33856719 31.62026419 9.32299209 31.61777858 1.30729795 31.62822175 C-3.46832179 31.63442988 -8.24377715 31.63536663 -13.01938605 31.6220758 C-17.51103327 31.61044645 -22.00223216 31.61867114 -26.4938314 31.64165282 C-28.13360199 31.64690233 -29.7734109 31.64549128 -31.41316581 31.63660216 C-45.10962048 31.56924869 -56.02406378 33.76577194 -67.14545417 42.16725707 Z M-116.14545417 104.16725707 C-116.14545417 104.82725707 -116.14545417 105.48725707 -116.14545417 106.16725707 C-117.03684089 106.55590941 -117.03684089 106.55590941 -117.94623542 106.95241332 C-120.30483523 108.25529883 -121.61228004 109.54791011 -123.33295417 111.60475707 C-124.0967237 112.50001098 -124.0967237 112.50001098 -124.87592292 113.41335082 C-126.34037224 115.25185526 -126.34037224 115.25185526 -127.14545417 118.16725707 C-16.26545417 118.16725707 94.61454583 118.16725707 208.85454583 118.16725707 C201.44546375 105.20136342 190.25096004 96.49934935 175.85454583 92.16725707 C163.42287446 89.47317726 150.76606484 89.87725106 138.12065911 89.89259887 C135.74064244 89.88824496 133.36062717 89.88305956 130.98061395 89.8771112 C124.55080574 89.86378369 118.12105653 89.8631355 111.69123721 89.8656745 C107.666445 89.86696355 103.64166155 89.86432476 99.61687112 89.86068702 C98.9461994 89.86009183 98.27552768 89.85949664 97.58453258 89.85888341 C96.22153776 89.85767151 94.85854293 89.85645738 93.49554811 89.85524104 C80.74859688 89.8443953 68.00167218 89.846514 55.25471948 89.85262588 C43.62663749 89.85779346 31.99863931 89.8465385 20.37057389 89.82752766 C8.39191407 89.80809578 -3.58670621 89.79990254 -15.56538188 89.80365092 C-22.27491304 89.80555473 -28.98436234 89.80288635 -35.69388175 89.78893638 C-42.00593977 89.7763023 -48.31783075 89.77835477 -54.62988639 89.79134727 C-56.93558537 89.79370039 -59.24129633 89.79102416 -61.54698157 89.78272414 C-81.52811639 89.7160269 -100.37685361 90.12830191 -116.14545417 104.16725707 Z M-164.39154792 166.62038207 C-178.00221727 183.99157504 -178.29785655 202.1237663 -178.29071784 223.3591516 C-178.29371634 225.15600696 -178.29712044 226.95286167 -178.30089545 228.74971557 C-178.30966504 233.59250857 -178.31207045 238.43528386 -178.31271124 243.27808404 C-178.31342526 246.31000011 -178.3155661 249.34191177 -178.31820846 252.37382674 C-178.32743549 262.96822176 -178.33154628 273.56260426 -178.3307569 284.15700316 C-178.33015542 294.00741201 -178.34072789 303.85776622 -178.35650057 313.70816123 C-178.36959716 322.19175484 -178.37493998 330.67533061 -178.37430149 339.15893424 C-178.37404732 344.21448413 -178.37685448 349.26998529 -178.38747954 354.32552505 C-178.3971974 359.07805419 -178.39721453 363.83048833 -178.38996291 368.58302093 C-178.38892196 370.31997481 -178.39125069 372.05693474 -178.39732337 373.79387832 C-178.46120088 393.34000561 -175.66926912 411.53441942 -161.45795417 426.10475707 C-157.4813244 430.06367034 -157.4813244 430.06367034 -152.14545417 431.16725707 C-152.14545417 431.82725707 -152.14545417 432.48725707 -152.14545417 433.16725707 C-149.918811 434.15252407 -147.689441 435.13057151 -145.45795417 436.10475707 C-144.83211432 436.38255004 -144.20627448 436.66034301 -143.56146979 436.94655395 C-138.26776791 439.24695843 -133.72089518 440.28351875 -127.97034431 440.32547545 C-126.94673804 440.33526427 -125.92313178 440.34505309 -124.86850715 440.35513854 C-123.75430396 440.360894 -122.64010077 440.36664947 -121.49213386 440.37257934 C-120.30834144 440.38247893 -119.12454902 440.39237853 -117.9048841 440.40257812 C-114.64473416 440.42880413 -111.38458987 440.45070255 -108.12439609 440.4705801 C-104.64207276 440.49272814 -101.1597893 440.52004099 -97.67749763 440.54663634 C-91.76579451 440.59102217 -85.8540749 440.63167651 -79.94232917 440.66994262 C-74.01847355 440.70830808 -68.09465201 440.749708 -62.17084479 440.79494262 C-20.16208352 441.11542424 21.84448917 441.26185683 63.85454583 441.16725707 C64.60874968 441.1655795 65.36295352 441.16390192 66.14001203 441.16217351 C86.67051226 441.11586956 107.20077947 441.04239636 127.73103547 440.93153071 C136.20619548 440.88601414 144.68130218 440.84649513 153.15654778 440.82082152 C160.74886149 440.79782162 168.34104566 440.764517 175.93325645 440.71855551 C179.89532391 440.6948804 183.85726659 440.67597842 187.81940293 440.66964316 C191.49506233 440.66358456 195.17038609 440.64355851 198.8459208 440.61298156 C200.81381856 440.60012431 202.7817947 440.60176191 204.74973321 440.60397887 C219.13173068 440.4524908 231.98926206 435.76804661 242.85454583 426.16725707 C245.02290311 423.94870633 246.96971873 421.6294186 248.85454583 419.16725707 C249.53517083 418.28038207 250.21579583 417.39350707 250.91704583 416.47975707 C259.51012397 401.78836541 260.15444332 387.17147504 260.11333489 370.62990355 C260.11604985 368.78393455 260.1196136 366.93796662 260.12395501 365.09200072 C260.13302062 360.1106993 260.12955912 355.12948134 260.12319684 350.14817858 C260.11810728 344.91764321 260.1228364 339.68711464 260.12596917 334.45657897 C260.12959991 325.67661301 260.12483284 316.89668079 260.11528802 308.11671996 C260.10440181 297.98628497 260.10793388 287.85593048 260.11894083 277.72549742 C260.12803511 269.00412964 260.12928862 260.28278601 260.12406349 251.56141502 C260.12095599 246.36277459 260.12050084 241.16417193 260.12713647 235.96553397 C260.13294064 231.0775825 260.12885712 226.18973422 260.11734796 221.30179381 C260.11471788 219.51485466 260.11543798 217.72790672 260.11987329 215.94097114 C260.14765102 203.60653802 259.58456773 192.13005437 254.79204583 180.60475707 C254.48968011 179.87732299 254.18731439 179.14988891 253.87578607 178.40041137 C248.89571432 167.09556045 239.21341901 157.63014456 227.61875653 153.10769725 C211.907549 147.76242787 195.23188778 148.74056015 178.86616194 148.78974211 C174.79320874 148.79866557 170.72028452 148.79011742 166.64733148 148.78388 C158.6894796 148.77443774 150.73171901 148.78095111 142.77387396 148.79314294 C133.49282526 148.80682754 124.2117978 148.80511946 114.93074157 148.80300961 C98.36520391 148.79982653 81.79970938 148.81144918 65.2341845 148.83107543 C49.18404094 148.85008588 33.13394789 148.8571597 17.08379388 148.85158324 C-0.42647511 148.84551742 -17.93672196 148.84571653 -35.44698912 148.85706908 C-37.3160241 148.85827628 -39.18505909 148.85948226 -41.05409408 148.86068702 C-41.97352195 148.86129056 -42.89294983 148.86189409 -43.84023916 148.86251592 C-50.29995316 148.86638498 -56.75965887 148.86600542 -63.21937346 148.86410117 C-71.09594363 148.86197315 -78.9724697 148.86724936 -86.84902748 148.88171472 C-90.86282187 148.88892855 -94.87655225 148.8930616 -98.89035201 148.88847136 C-102.57216914 148.88436336 -106.25385471 148.88964904 -109.935652 148.90209744 C-111.8817638 148.90636306 -113.8278896 148.90097016 -115.77399725 148.89510816 C-134.51840717 148.98752176 -151.26933072 152.28863876 -164.39154792 166.62038207 Z " fill="#0E0E0E" transform="translate(209.1454541683197,13.832742929458618)"/>
<path d="M0 0 C28.54989392 -0.92355494 58.83784981 9.5554634 80.52734375 28.16015625 C82.23690707 29.78279262 83.91227599 31.44344087 85.52734375 33.16015625 C86.69523437 34.36671875 86.69523437 34.36671875 87.88671875 35.59765625 C94.18589498 42.34971443 99.51145713 49.39301838 104.52734375 57.16015625 C105.15640625 58.12695312 105.78546875 59.09375 106.43359375 60.08984375 C122.31290606 85.7892571 125.79724149 117.50908196 118.95458984 146.59472656 C116.87306791 154.72193205 114.3553954 162.67565526 110.52734375 170.16015625 C110.07101562 171.12824219 109.6146875 172.09632813 109.14453125 173.09375 C104.86199309 181.7105478 99.41108718 188.48045007 92.97021484 195.56152344 C91.66951564 197.00263654 90.40281162 198.47425762 89.140625 199.94921875 C78.71619963 212.03930634 66.21526322 221.04182397 51.52734375 227.16015625 C50.55152344 227.58296875 49.57570313 228.00578125 48.5703125 228.44140625 C35.03565533 234.02551638 21.73975043 236.39870563 7.15234375 237.03515625 C6.08346924 237.08446289 5.01459473 237.13376953 3.91333008 237.18457031 C-19.44725965 237.87053153 -49.47104126 229.46363691 -67.47265625 214.16015625 C-67.47265625 213.50015625 -67.47265625 212.84015625 -67.47265625 212.16015625 C-68.02566406 211.92167969 -68.57867187 211.68320312 -69.1484375 211.4375 C-78.16466388 206.48236382 -85.39944797 197.21800224 -91.47265625 189.16015625 C-92.61734375 187.64615234 -92.61734375 187.64615234 -93.78515625 186.1015625 C-111.83336438 161.19381581 -118.08421167 130.5646392 -113.9453125 100.3046875 C-108.72920542 71.50807265 -92.86582521 41.86571534 -68.88671875 24.26171875 C-66.12687675 22.47308215 -63.31722844 20.81038488 -60.47265625 19.16015625 C-58.93544922 18.18949219 -58.93544922 18.18949219 -57.3671875 17.19921875 C-43.32868577 8.60824817 -27.70075011 3.64607749 -11.47265625 1.16015625 C-10.23515625 0.96486328 -10.23515625 0.96486328 -8.97265625 0.765625 C-5.98624105 0.36565868 -3.00541015 0.19466322 0 0 Z M34.52734375 87.16015625 C32.82612462 88.7915388 31.1632565 90.46329295 29.52734375 92.16015625 C18.91062784 102.91969793 18.91062784 102.91969793 14.71484375 106.41015625 C9.89741711 110.48797797 5.74552518 115.22841301 1.5378418 119.91894531 C-1.55747149 123.320274 -4.30392283 126.05616273 -8.47265625 128.16015625 C-8.71371094 127.59167969 -8.95476562 127.02320313 -9.203125 126.4375 C-10.72233713 123.71226717 -12.54684606 121.89325286 -14.78515625 119.72265625 C-15.59082031 118.93632812 -16.39648438 118.15 -17.2265625 117.33984375 C-17.96777344 116.62054688 -18.70898438 115.90125 -19.47265625 115.16015625 C-20.38015625 114.23203125 -21.28765625 113.30390625 -22.22265625 112.34765625 C-28.10795356 106.6168399 -28.10795356 106.6168399 -35.78515625 104.91015625 C-39.87613994 104.98882901 -42.35225084 105.30721416 -45.47265625 108.16015625 C-48.25660125 111.94916766 -49.84475476 115.73031784 -49.78515625 120.47265625 C-48.15253083 130.21791522 -37.48283741 138.9624369 -30.16015625 145.09765625 C-28.52293397 146.33776067 -28.52293397 146.33776067 -26.47265625 146.16015625 C-26.22773438 146.72605469 -25.9828125 147.29195312 -25.73046875 147.875 C-22.65374891 153.46469287 -17.28118143 158.76673033 -11.41015625 161.34765625 C-7.04915737 162.59982424 -3.53101517 162.1497033 0.52734375 160.16015625 C6.01044646 156.35839558 10.24253437 151.30856846 14.58203125 146.296875 C16.87150398 143.78213286 19.33394198 141.63665277 21.953125 139.4765625 C24.29754821 137.5160895 26.39254958 135.34577885 28.52734375 133.16015625 C30.02597075 131.65878451 31.52610562 130.15891709 33.02734375 128.66015625 C33.80980469 127.87769531 34.59226562 127.09523438 35.3984375 126.2890625 C42.52734375 119.16015625 42.52734375 119.16015625 44.4296875 117.29296875 C53.18532659 109.22092865 53.18532659 109.22092865 56.83984375 98.34765625 C56.77222715 93.09288033 54.36164744 89.99445994 50.71484375 86.34765625 C44.81643926 83.14566524 40.213284 84.00130055 34.52734375 87.16015625 Z " fill="#070707" transform="translate(246.47265625,189.83984375)"/>
<path d="M0 0 C1.04940156 -0.00382555 2.09880311 -0.00765109 3.18000472 -0.01159257 C6.67804844 -0.0218683 10.17592636 -0.01794072 13.67398071 -0.01396179 C16.18944958 -0.01831126 18.70491711 -0.02349519 21.22038269 -0.02944946 C27.33297296 -0.04143741 33.44550263 -0.04399393 39.55810235 -0.0416492 C44.52919422 -0.03986251 49.50027279 -0.04162319 54.47136307 -0.04587364 C55.53467178 -0.04676643 55.53467178 -0.04676643 56.61946148 -0.04767724 C58.05977364 -0.04888906 59.50008579 -0.05010319 60.94039793 -0.05131962 C74.43255886 -0.06218355 87.92469475 -0.0600381 101.41685708 -0.05393478 C113.74378446 -0.04876659 126.0706328 -0.0600205 138.39754455 -0.07903299 C151.07323916 -0.09843265 163.74889642 -0.10666367 176.42460597 -0.10290974 C183.53367059 -0.10100093 190.64266796 -0.10345398 197.75172043 -0.11762428 C204.43797224 -0.13081764 211.12404058 -0.12824925 217.81030083 -0.11521339 C220.26000078 -0.1128502 222.70971188 -0.11557304 225.15939903 -0.12383652 C228.51180307 -0.1343271 231.863679 -0.12618427 235.21606445 -0.11352539 C236.65875452 -0.12458682 236.65875452 -0.12458682 238.13058984 -0.13587171 C244.07544016 -0.08887459 249.18468137 0.84946283 254.85604346 2.64812022 C257.88620004 3.42837381 260.25266737 3.14734056 263.23501587 2.26069641 C263.23501587 3.58069641 263.23501587 4.90069641 263.23501587 6.26069641 C263.56501587 6.92069641 263.89501587 7.58069641 264.23501587 8.26069641 C263.12126587 7.85850891 263.12126587 7.85850891 261.98501587 7.44819641 C258.86908459 6.46148484 255.76630224 5.54318646 252.61001587 4.69819641 C251.68962524 4.44940735 250.76923462 4.20061829 249.82095337 3.94429016 C237.10396614 1.52002789 223.98404277 2.10552909 211.09536743 2.0995636 C208.75505496 2.09492867 206.41474324 2.08990311 204.07443237 2.08451843 C197.74369234 2.07146021 191.41296288 2.06496276 185.08221149 2.06050777 C181.1200808 2.05756728 177.15795293 2.05346075 173.19582367 2.0490036 C162.19791442 2.03682501 151.20000706 2.02652129 140.20209122 2.02312851 C139.14942083 2.02279916 139.14942083 2.02279916 138.07548438 2.02246316 C137.37216141 2.02224488 136.66883845 2.0220266 135.94420266 2.02180171 C134.5193305 2.02135827 133.09445834 2.0209117 131.66958618 2.02046204 C130.96282162 2.02024061 130.25605706 2.02001918 129.52787539 2.01979104 C118.08073302 2.01584453 106.63365436 1.99838867 95.18653658 1.97510251 C83.39778754 1.9513173 71.6090704 1.9389235 59.820297 1.93776059 C53.2158116 1.93684812 46.61139965 1.93087914 40.00693512 1.91294098 C33.79176399 1.89638643 27.57675004 1.89434052 21.36156464 1.90307999 C19.09133989 1.90384633 16.82110643 1.89956135 14.55090332 1.88962173 C-8.40740785 1.69532917 -8.40740785 1.69532917 -29.76498413 9.26069641 C-30.42498413 8.93069641 -31.08498413 8.60069641 -31.76498413 8.26069641 C-29.95949676 7.2892159 -28.14513113 6.3342313 -26.32748413 5.38569641 C-25.31814819 4.85202454 -24.30881226 4.31835266 -23.26889038 3.76850891 C-15.63871648 0.4850673 -8.22847946 -0.03218415 0 0 Z " fill="#989898" transform="translate(132.76498413085938,102.73930358886719)"/>
<path d="M0 0 C6.66233766 4.07142857 6.66233766 4.07142857 8.25 8.4375 C8.4975 9.613125 8.745 10.78875 9 12 C9.474375 12.928125 9.94875 13.85625 10.4375 14.8125 C15.65981841 25.46602956 15.42887673 35.69255251 15.38818359 47.30419922 C15.39225363 49.25662529 15.39759792 51.20904906 15.40411377 53.16146851 C15.4177436 58.44256326 15.41250614 63.72348139 15.40297651 69.00457907 C15.39535528 74.5456294 15.40243256 80.08666511 15.40713501 85.62771606 C15.4125863 94.93331604 15.40541832 104.23884449 15.39111328 113.54443359 C15.37479761 124.28150163 15.38006998 135.01839865 15.3965925 145.75546253 C15.41023667 154.99400663 15.41211242 164.23249945 15.40427649 173.47105038 C15.39961484 178.97996452 15.39893328 184.48879847 15.40888596 189.99770737 C15.41759572 195.18033668 15.4114608 200.3627471 15.39420319 205.54535294 C15.39025927 207.43990975 15.39133616 209.3344852 15.39799118 211.22903442 C15.44156865 224.90257235 14.18785757 236.56146397 8 249 C7.34 249 6.68 249 6 249 C6.18175781 248.46632813 6.36351562 247.93265625 6.55078125 247.3828125 C7.95267222 243.22746387 9.32129944 239.062255 10.625 234.875 C10.86476563 234.10929688 11.10453125 233.34359375 11.3515625 232.5546875 C12.82247408 226.75965029 13.14674197 221.00960156 13.13371277 215.05706787 C13.13597833 214.28705673 13.13824388 213.51704558 13.14057809 212.72370076 C13.14687733 210.15920947 13.14609136 207.59477158 13.14526367 205.03027344 C13.14825773 203.18504265 13.15166083 201.33981248 13.15544128 199.49458313 C13.16426092 194.49234912 13.16661856 189.49013223 13.16725707 184.4878912 C13.16796879 181.35918692 13.17010544 178.23048696 13.17275429 175.10178375 C13.18200137 164.17673975 13.18609002 153.25170794 13.18530273 142.32666016 C13.18470229 132.15941237 13.19524918 121.99221771 13.2110464 111.82498336 C13.22414358 103.08248959 13.22948571 94.34001313 13.22884732 85.59750962 C13.22859295 80.38202181 13.2314104 75.16658121 13.24202538 69.95110321 C13.25174289 65.04270714 13.25176056 60.13440306 13.24450874 55.22600365 C13.2434674 53.43100283 13.24579888 51.63599618 13.2518692 49.84100533 C13.29181614 37.20380657 12.65382754 25.84339555 7.625 14.0625 C7.33367187 13.33482422 7.04234375 12.60714844 6.7421875 11.85742188 C5.02677719 7.74570374 3.33743235 5.05073662 0 2 C0 1.34 0 0.68 0 0 Z " fill="#CBCBCB" transform="translate(455,180)"/>
<path d="M0 0 C0.495 0.99 0.495 0.99 1 2 C0.51789063 2.53109375 0.03578125 3.0621875 -0.4609375 3.609375 C-1.09257812 4.31578125 -1.72421875 5.0221875 -2.375 5.75 C-3.00148438 6.44609375 -3.62796875 7.1421875 -4.2734375 7.859375 C-6.05594791 9.88821972 -6.05594791 9.88821972 -6.9765625 12.140625 C-8 14 -8 14 -9.81811523 14.87817383 C-12.37128397 16.19089738 -13.9410069 17.74589511 -15.93359375 19.80859375 C-16.66513672 20.55560547 -17.39667969 21.30261719 -18.15039062 22.07226562 C-19.67129064 23.64511782 -21.19212431 25.21803416 -22.71289062 26.79101562 C-23.44572266 27.53931641 -24.17855469 28.28761719 -24.93359375 29.05859375 C-25.59415771 29.74236084 -26.25472168 30.42612793 -26.93530273 31.13061523 C-29.14640211 33.13255303 -31.41857117 34.51787104 -34 36 C-35.68477344 37.31037934 -37.35648543 38.63823078 -39 40 C-37.43306739 36.03227006 -34.85724066 33.84621 -31.6875 31.0625 C-28.00259871 27.80993365 -24.4478007 24.50332084 -21 21 C-14 14 -7 7 0 0 Z " fill="#646464" transform="translate(295,302)"/>
<path d="M0 0 C0.66 0 1.32 0 2 0 C2 0.66 2 1.32 2 2 C3.32 2.33 4.64 2.66 6 3 C6.5625 4.9375 6.5625 4.9375 7 7 C5.34863345 8.65136655 3.42092079 8.1274188 1.14819336 8.12939453 C0.11299057 8.13254669 -0.92221222 8.13569885 -1.98878479 8.13894653 C-3.11783737 8.1369223 -4.24688995 8.13489807 -5.41015625 8.1328125 C-7.14415932 8.13424759 -7.14415932 8.13424759 -8.91319275 8.13571167 C-11.36880548 8.13639408 -13.82442 8.13453559 -16.2800293 8.13037109 C-20.0220146 8.12505749 -23.763878 8.13029644 -27.50585938 8.13671875 C-29.89062526 8.13605731 -32.27539108 8.1347748 -34.66015625 8.1328125 C-35.77503922 8.13483673 -36.88992218 8.13686096 -38.03858948 8.13894653 C-43.78823001 8.12180443 -49.31400482 7.86590505 -55 7 C-55 6.67 -55 6.34 -55 6 C-35.86 6 -16.72 6 3 6 C2.01 4.02 1.02 2.04 0 0 Z " fill="#666666" transform="translate(370,67)"/>
<path d="M0 0 C6.66233766 4.07142857 6.66233766 4.07142857 8.25 8.4375 C8.4975 9.613125 8.745 10.78875 9 12 C9.474375 12.928125 9.94875 13.85625 10.4375 14.8125 C15.63912756 25.42382022 15.32098153 35.42088834 15 47 C14.67 47 14.34 47 14 47 C13.95625244 46.17145508 13.95625244 46.17145508 13.91162109 45.32617188 C13.01528861 30.03467628 10.90697795 16.8060907 2 4 C1.30570621 2.6808418 0.62469505 1.35350594 0 0 Z " fill="#B2B2B2" transform="translate(455,180)"/>
<path d="M0 0 C0.66 0.33 1.32 0.66 2 1 C0.3125 3.9375 0.3125 3.9375 -2 7 C-4.625 7.625 -4.625 7.625 -7 8 C-7.29390625 8.59039062 -7.5878125 9.18078125 -7.890625 9.7890625 C-9.23093671 12.46024711 -10.84392934 13.83684397 -13.125 15.75 C-14.21167969 16.67039062 -14.21167969 16.67039062 -15.3203125 17.609375 C-15.87460938 18.06828125 -16.42890625 18.5271875 -17 19 C-17 14.74116859 -14.99773111 13.278418 -12.22265625 10.20703125 C-8.436418 6.44740979 -4.25017602 3.21542492 0 0 Z " fill="#8E8E8E" transform="translate(80,88)"/>
<path d="M0 0 C1 3 1 3 -0.4765625 6.14453125 C-1.1821467 7.3733128 -1.89879651 8.59579065 -2.625 9.8125 C-2.96917969 10.41642578 -3.31335938 11.02035156 -3.66796875 11.64257812 C-6.09006925 15.794112 -8.84001432 19.37987606 -12 23 C-12.33 21.68 -12.66 20.36 -13 19 C-12.34 19 -11.68 19 -11 19 C-11 18.01 -11 17.02 -11 16 C-10.01 16 -9.02 16 -8 16 C-7.73445313 15.29488281 -7.46890625 14.58976562 -7.1953125 13.86328125 C-5.93501033 10.84432214 -4.46042006 8.04814924 -2.875 5.1875 C-2.33617187 4.21167969 -1.79734375 3.23585938 -1.2421875 2.23046875 C-0.83226562 1.49441406 -0.42234375 0.75835937 0 0 Z " fill="#AAAAAA" transform="translate(357,356)"/>
<path d="M0 0 C6.2268236 -0.2384741 11.80993955 0.17162239 17.87109375 1.66015625 C20.17958516 2.19670591 20.17958516 2.19670591 23 1 C23 2.32 23 3.64 23 5 C23.33 5.66 23.66 6.32 24 7 C23.2575 6.731875 22.515 6.46375 21.75 6.1875 C14.61891263 3.92932233 7.39132914 2.15489518 0 1 C0 0.67 0 0.34 0 0 Z " fill="#BFBFBF" transform="translate(373,104)"/>
<path d="M0 0 C0 2.33333333 0 4.66666667 0 7 C-1.1446875 7.2165625 -1.1446875 7.2165625 -2.3125 7.4375 C-5.50139755 9.29151021 -5.59059417 10.03004549 -6.625 13.4375 C-6.82351562 14.21996094 -7.02203125 15.00242187 -7.2265625 15.80859375 C-8.07851331 18.22245437 -9.07821959 19.34896766 -11 21 C-9.82884285 13.21109947 -5.20697536 5.80778021 0 0 Z " fill="#C2C2C2" transform="translate(61,107)"/>
<path d="M0 0 C0.556875 0.309375 1.11375 0.61875 1.6875 0.9375 C3.97909861 2.10044056 3.97909861 2.10044056 6.5625 2.5 C9 3 9 3 12 5 C12 6.32 12 7.64 12 9 C12.33 9.66 12.66 10.32 13 11 C9.54691313 9.48729451 7.04375621 7.45279358 4.25 4.9375 C3.45078125 4.22464844 2.6515625 3.51179688 1.828125 2.77734375 C1.22484375 2.19082031 0.6215625 1.60429687 0 1 C0 0.67 0 0.34 0 0 Z " fill="#666666" transform="translate(166,391)"/>
<path d="M0 0 C0.66 0.33 1.32 0.66 2 1 C-3.66666667 6.66666667 -9.33333333 12.33333333 -15 18 C-15 15 -15 15 -13.62304688 13.2824707 C-12.99462891 12.66976318 -12.36621094 12.05705566 -11.71875 11.42578125 C-11.04199219 10.75869141 -10.36523438 10.09160156 -9.66796875 9.40429688 C-8.95253906 8.71400391 -8.23710937 8.02371094 -7.5 7.3125 C-6.42685547 6.2596582 -6.42685547 6.2596582 -5.33203125 5.18554688 C-3.56120423 3.45013639 -1.78376544 1.7220927 0 0 Z " fill="#C7C7C7" transform="translate(280,276)"/>
<path d="M0 0 C3.03196048 3.51889204 5.03433189 6.83805695 6.8125 11.125 C7.25207031 12.15882812 7.69164062 13.19265625 8.14453125 14.2578125 C9 17 9 17 8 20 C7.01 19.67 6.02 19.34 5 19 C5.061875 17.96875 5.12375 16.9375 5.1875 15.875 C4.98752674 11.74221929 3.98910045 9.56380498 2 6 C2 5.34 2 4.68 2 4 C1.34 4 0.68 4 0 4 C0 2.68 0 1.36 0 0 Z " fill="#A6A6A6" transform="translate(399,55)"/>
<path d="M0 0 C-0.92652701 1.17539996 -1.86663387 2.34010577 -2.8125 3.5 C-3.33457031 4.1496875 -3.85664063 4.799375 -4.39453125 5.46875 C-6 7 -6 7 -9 7 C-8.02086745 1.32103121 -5.73500486 -0.46500039 0 0 Z " fill="#565656" transform="translate(336,389)"/>
<path d="M0 0 C0 3.42092139 -0.79863503 4.87717297 -2.375 7.875 C-4.11263465 11.1978452 -5.65677446 14.49757078 -7 18 C-7.6875 16.375 -7.6875 16.375 -8 14 C-7.0520411 11.97481509 -6.04808041 9.97522846 -5 8 C-4.7834375 6.6696875 -4.7834375 6.6696875 -4.5625 5.3125 C-3.83549321 2.32369432 -2.56344003 1.57114067 0 0 Z " fill="#BABABA" transform="translate(41,184)"/>
<path d="M0 0 C1.23556641 0.01740234 1.23556641 0.01740234 2.49609375 0.03515625 C3.32238281 0.04417969 4.14867187 0.05320313 5 0.0625 C5.63808594 0.07410156 6.27617187 0.08570313 6.93359375 0.09765625 C6.93359375 0.42765625 6.93359375 0.75765625 6.93359375 1.09765625 C1.32359375 2.41765625 -4.28640625 3.73765625 -10.06640625 5.09765625 C-9.40640625 3.77765625 -8.74640625 2.45765625 -8.06640625 1.09765625 C-6.85984375 1.12859375 -6.85984375 1.12859375 -5.62890625 1.16015625 C-2.75043439 1.08994962 -2.70010568 0.12760424 0 0 Z " fill="#5D5D5D" transform="translate(161.06640625,44.90234375)"/>
<path d="M0 0 C0.66 0.33 1.32 0.66 2 1 C0.20963542 1.9765625 -1.58072917 2.953125 -3.37109375 3.9296875 C-5.16618315 4.91410024 -5.16618315 4.91410024 -6 7 C-8.97 6.505 -8.97 6.505 -12 6 C-9.48617788 4.32411859 -7.17052712 3.05969689 -4.4375 1.8125 C-3.65246094 1.44769531 -2.86742187 1.08289063 -2.05859375 0.70703125 C-1.37925781 0.47371094 -0.69992187 0.24039062 0 0 Z " fill="#888888" transform="translate(441,447)"/>
<path d="M0 0 C0 0.66 0 1.32 0 2 C0.66 2.33 1.32 2.66 2 3 C-1.96 4.98 -1.96 4.98 -6 7 C-5.67 5.02 -5.34 3.04 -5 1 C-2 0 -2 0 0 0 Z " fill="#484848" transform="translate(61,165)"/>
<path d="M0 0 C0.66 0.33 1.32 0.66 2 1 C1.06409496 2.1055189 0.12620142 3.20935453 -0.8125 4.3125 C-1.33457031 4.92738281 -1.85664063 5.54226562 -2.39453125 6.17578125 C-3.87172469 7.85424679 -5.40039131 9.43882034 -7 11 C-7.99 10.67 -8.98 10.34 -10 10 C-6.7 6.7 -3.4 3.4 0 0 Z " fill="#666666" transform="translate(32,150)"/>
<path d="M0 0 C0.66 0 1.32 0 2 0 C2 0.66 2 1.32 2 2 C3.32 2.33 4.64 2.66 6 3 C6.33 4.32 6.66 5.64 7 7 C4.3333581 8.33332095 2.83319697 7.67102033 0 7 C0.99 6.67 1.98 6.34 3 6 C2.01 4.02 1.02 2.04 0 0 Z " fill="#757575" transform="translate(370,67)"/>
<path d="M0 0 C0.33 0 0.66 0 1 0 C1.34615998 5.65394631 0.43425238 9.03006806 -2 14 C-2.99 13.34 -3.98 12.68 -5 12 C-4.34 12 -3.68 12 -3 12 C-2.01 8.04 -1.02 4.08 0 0 Z " fill="#AAAAAA" transform="translate(92,72)"/>
<path d="M0 0 C0.33 0.66 0.66 1.32 1 2 C0.2578125 3.76953125 0.2578125 3.76953125 -0.875 5.8125 C-2.49461888 8.87860609 -3.56504816 11.52038527 -4 15 C-4.66 15 -5.32 15 -6 15 C-5.54979057 9.14727744 -2.96160773 4.91779881 0 0 Z " fill="#C0C0C0" transform="translate(99,57)"/>
<path d="M0 0 C2.51699845 2.51699845 3.10964078 4.57554146 4 8 C3.625 10.375 3.625 10.375 3 12 C0.97649676 8.96474514 0.67875982 7.80573798 0.375 4.3125 C0.30023438 3.50425781 0.22546875 2.69601563 0.1484375 1.86328125 C0.09945313 1.24839844 0.05046875 0.63351563 0 0 Z " fill="#BFBFBF" transform="translate(493,184)"/>
<path d="M0 0 C1.32554118 3.97662354 0.34765994 6.09887911 -1 10 C-1.66 10.66 -2.32 11.32 -3 12 C-2.49202991 7.6822542 -1.80317221 3.96697886 0 0 Z " fill="#BEBEBE" transform="translate(6,184)"/>
<path d="M0 0 C0 2.33333333 0 4.66666667 0 7 C-1.98 7.99 -1.98 7.99 -4 9 C-3.46930939 5.17902761 -2.50298434 2.93828597 0 0 Z " fill="#7A7A7A" transform="translate(61,107)"/>
<path d="M0 0 C0.66 0.33 1.32 0.66 2 1 C0.02 3.97 0.02 3.97 -2 7 C-2.99 6.67 -3.98 6.34 -5 6 C-3.35 4.02 -1.7 2.04 0 0 Z " fill="#515151" transform="translate(80,88)"/>
<path d="M0 0 C0.928125 0.0825 1.85625 0.165 2.8125 0.25 C0.83829865 2.77259061 -0.15495642 3.2429808 -3.375 3.9375 C-4.7671875 4.0921875 -4.7671875 4.0921875 -6.1875 4.25 C-4.36434338 1.00883268 -3.82500054 0.30000004 0 0 Z " fill="#7C7C7C" transform="translate(451.1875,474.75)"/>
<path d="M0 0 C0.144375 0.61875 0.28875 1.2375 0.4375 1.875 C0.93152225 4.03258322 0.93152225 4.03258322 2 6 C0.02 5.34 -1.96 4.68 -4 4 C-4 3.34 -4 2.68 -4 2 C-2.68 1.34 -1.36 0.68 0 0 Z " fill="#7D7D7D" transform="translate(395,105)"/>
</svg>
