<svg xmlns="http://www.w3.org/2000/svg" viewBox="0 0 48 48" width="100" height="100"><g><path fill="#4285F4" d="M24 9.5c3.54 0 6.7 1.22 9.19 3.23l6.86-6.86C36.68 2.69 30.77 0 24 0 14.82 0 6.73 5.8 2.69 14.09l7.98 6.19C12.13 13.13 17.62 9.5 24 9.5z"/><path fill="#34A853" d="M46.1 24.55c0-1.64-.15-3.22-.42-4.74H24v9.01h12.42c-.54 2.9-2.18 5.36-4.66 7.01l7.19 5.6C43.98 37.13 46.1 31.3 46.1 24.55z"/><path fill="#FBBC05" d="M10.67 28.28A14.5 14.5 0 0 1 9.5 24c0-1.49.25-2.93.7-4.28l-7.98-6.19A23.97 23.97 0 0 0 0 24c0 3.77.9 7.34 2.49 10.47l8.18-6.19z"/><path fill="#EA4335" d="M24 48c6.48 0 11.92-2.15 15.89-5.85l-7.19-5.6c-2.01 1.35-4.59 2.15-8.7 2.15-6.38 0-11.87-3.63-14.33-8.88l-8.18 6.19C6.73 42.2 14.82 48 24 48z"/><path fill="none" d="M0 0h48v48H0z"/></g></svg>
